<?xml version="1.0" encoding="UTF-8" standalone="no"?>
<svg width="1000" height="1000" xmlns="http://www.w3.org/2000/svg">
    <defs>
        <linearGradient id="nightSky" x1="0%" y1="0%" x2="0%" y2="100%">
            <stop offset="0%" stop-color="#0a0a2a"/>
            <stop offset="100%" stop-color="#042F54"/>
        </linearGradient>

        <g id="star">
            <circle cx="0" cy="0" r="1.2" fill="#FFFFFF"/>
            <line x1="-1.5" y1="0" x2="1.5" y2="0" stroke="#FFFFFF" stroke-width="0.8" stroke-linecap="round"/>
            <line x1="0" y1="-1.5" x2="0" y2="1.5" stroke="#FFFFFF" stroke-width="0.8" stroke-linecap="round"/>
        </g>

        <g id="smallStar">
            <circle cx="0" cy="0" r="0.8" fill="#FFFFFF"/>
            <line x1="-1" y1="0" x2="1" y2="0" stroke="#FFFFFF" stroke-width="0.5" stroke-linecap="round"/>
            <line x1="0" y1="-1" x2="0" y2="1" stroke="#FFFFFF" stroke-width="0.5" stroke-linecap="round"/>
        </g>

        <g id="dimStar">
            <circle cx="0" cy="0" r="1" fill="#CCCCFF" opacity="0.7"/>
        </g>
    </defs>

    <rect width="1000" height="1000" fill="url(#nightSky)"/>

    <use href="#star" x="123" y="234"/>
    <use href="#star" x="234" y="123"/>
    <use href="#star" x="345" y="123"/>
    <use href="#star" x="345" y="901"/>
    <use href="#star" x="456" y="234"/>
    <use href="#star" x="456" y="567"/>
    <use href="#star" x="567" y="456"/>
    <use href="#star" x="678" y="345"/>
    <use href="#star" x="678" y="456"/>
    <use href="#star" x="789" y="567"/>
    <use href="#star" x="789" y="890"/>
    <use href="#star" x="890" y="789"/>
    <use href="#star" x="901" y="678"/>

    <use href="#dimStar" x="10" y="930"/>
    <use href="#dimStar" x="103" y="924"/>
    <use href="#dimStar" x="113" y="386"/>
    <use href="#dimStar" x="113" y="393"/>
    <use href="#dimStar" x="114" y="579"/>
    <use href="#dimStar" x="121" y="45"/>
    <use href="#dimStar" x="122" y="783"/>
    <use href="#dimStar" x="128" y="687"/>
    <use href="#dimStar" x="132" y="245"/>
    <use href="#dimStar" x="135" y="564"/>
    <use href="#dimStar" x="135" y="576"/>
    <use href="#dimStar" x="136" y="528"/>
    <use href="#dimStar" x="144" y="596"/>
    <use href="#dimStar" x="146" y="691"/>
    <use href="#dimStar" x="148" y="435"/>
    <use href="#dimStar" x="149" y="288"/>
    <use href="#dimStar" x="15" y="221"/>
    <use href="#dimStar" x="154" y="947"/>
    <use href="#dimStar" x="155" y="140"/>
    <use href="#dimStar" x="155" y="297"/>
    <use href="#dimStar" x="155" y="836"/>
    <use href="#dimStar" x="161" y="764"/>
    <use href="#dimStar" x="161" y="825"/>
    <use href="#dimStar" x="164" y="751"/>
    <use href="#dimStar" x="169" y="741"/>
    <use href="#dimStar" x="175" y="645"/>
    <use href="#dimStar" x="175" y="734"/>
    <use href="#dimStar" x="178" y="619"/>
    <use href="#dimStar" x="185" y="352"/>
    <use href="#dimStar" x="186" y="716"/>
    <use href="#dimStar" x="189" y="814"/>
    <use href="#dimStar" x="195" y="173"/>
    <use href="#dimStar" x="195" y="413"/>
    <use href="#dimStar" x="195" y="671"/>
    <use href="#dimStar" x="199" y="350"/>
    <use href="#dimStar" x="20" y="585"/>
    <use href="#dimStar" x="203" y="890"/>
    <use href="#dimStar" x="207" y="310"/>
    <use href="#dimStar" x="209" y="962"/>
    <use href="#dimStar" x="210" y="20"/>
    <use href="#dimStar" x="213" y="541"/>
    <use href="#dimStar" x="219" y="163"/>
    <use href="#dimStar" x="222" y="243"/>
    <use href="#dimStar" x="225" y="45"/>
    <use href="#dimStar" x="227" y="839"/>
    <use href="#dimStar" x="236" y="591"/>
    <use href="#dimStar" x="237" y="896"/>
    <use href="#dimStar" x="238" y="883"/>
    <use href="#dimStar" x="239" y="480"/>
    <use href="#dimStar" x="246" y="437"/>
    <use href="#dimStar" x="247" y="480"/>
    <use href="#dimStar" x="25" y="45"/>
    <use href="#dimStar" x="251" y="318"/>
    <use href="#dimStar" x="253" y="164"/>
    <use href="#dimStar" x="255" y="140"/>
    <use href="#dimStar" x="264" y="296"/>
    <use href="#dimStar" x="265" y="428"/>
    <use href="#dimStar" x="277" y="352"/>
    <use href="#dimStar" x="277" y="688"/>
    <use href="#dimStar" x="285" y="249"/>
    <use href="#dimStar" x="292" y="879"/>
    <use href="#dimStar" x="297" y="488"/>
    <use href="#dimStar" x="310" y="30"/>
    <use href="#dimStar" x="310" y="891"/>
    <use href="#dimStar" x="321" y="541"/>
    <use href="#dimStar" x="337" y="140"/>
    <use href="#dimStar" x="342" y="863"/>
    <use href="#dimStar" x="35" y="618"/>
    <use href="#dimStar" x="350" y="434"/>
    <use href="#dimStar" x="351" y="626"/>
    <use href="#dimStar" x="353" y="212"/>
    <use href="#dimStar" x="358" y="533"/>
    <use href="#dimStar" x="362" y="214"/>
    <use href="#dimStar" x="365" y="80"/>
    <use href="#dimStar" x="372" y="255"/>
    <use href="#dimStar" x="376" y="643"/>
    <use href="#dimStar" x="377" y="318"/>
    <use href="#dimStar" x="380" y="310"/>
    <use href="#dimStar" x="381" y="772"/>
    <use href="#dimStar" x="389" y="172"/>
    <use href="#dimStar" x="398" y="796"/>
    <use href="#dimStar" x="40" y="316"/>
    <use href="#dimStar" x="402" y="787"/>
    <use href="#dimStar" x="410" y="923"/>
    <use href="#dimStar" x="414" y="995"/>
    <use href="#dimStar" x="415" y="120"/>
    <use href="#dimStar" x="420" y="45"/>
    <use href="#dimStar" x="421" y="704"/>
    <use href="#dimStar" x="425" y="762"/>
    <use href="#dimStar" x="436" y="915"/>
    <use href="#dimStar" x="441" y="647"/>
    <use href="#dimStar" x="45" y="495"/>
    <use href="#dimStar" x="450" y="480"/>
    <use href="#dimStar" x="465" y="855"/>
    <use href="#dimStar" x="480" y="110"/>
    <use href="#dimStar" x="486" y="679"/>
    <use href="#dimStar" x="493" y="636"/>
    <use href="#dimStar" x="509" y="318"/>
    <use href="#dimStar" x="515" y="334"/>
    <use href="#dimStar" x="520" y="85"/>
    <use href="#dimStar" x="524" y="729"/>
    <use href="#dimStar" x="530" y="621"/>
    <use href="#dimStar" x="544" y="395"/>
    <use href="#dimStar" x="548" y="381"/>
    <use href="#dimStar" x="55" y="8140"/>
    <use href="#dimStar" x="551" y="272"/>
    <use href="#dimStar" x="556" y="751"/>
    <use href="#dimStar" x="564" y="557"/>
    <use href="#dimStar" x="565" y="920"/>
    <use href="#dimStar" x="573" y="134"/>
    <use href="#dimStar" x="573" y="586"/>
    <use href="#dimStar" x="579" y="217"/>
    <use href="#dimStar" x="580" y="819"/>
    <use href="#dimStar" x="585" y="147"/>
    <use href="#dimStar" x="585" y="25"/>
    <use href="#dimStar" x="586" y="957"/>
    <use href="#dimStar" x="587" y="835"/>
    <use href="#dimStar" x="590" y="50"/>
    <use href="#dimStar" x="590" y="769"/>
    <use href="#dimStar" x="597" y="972"/>
    <use href="#dimStar" x="599" y="786"/>
    <use href="#dimStar" x="601" y="739"/>
    <use href="#dimStar" x="605" y="208"/>
    <use href="#dimStar" x="606" y="117"/>
    <use href="#dimStar" x="610" y="176"/>
    <use href="#dimStar" x="611" y="182"/>
    <use href="#dimStar" x="612" y="295"/>
    <use href="#dimStar" x="621" y="723"/>
    <use href="#dimStar" x="625" y="322"/>
    <use href="#dimStar" x="629" y="260"/>
    <use href="#dimStar" x="630" y="475"/>
    <use href="#dimStar" x="637" y="157"/>
    <use href="#dimStar" x="639" y="455"/>
    <use href="#dimStar" x="640" y="660"/>
    <use href="#dimStar" x="641" y="416"/>
    <use href="#dimStar" x="641" y="884"/>
    <use href="#dimStar" x="644" y="783"/>
    <use href="#dimStar" x="645" y="95"/>
    <use href="#dimStar" x="65" y="180"/>
    <use href="#dimStar" x="65" y="870"/>
    <use href="#dimStar" x="650" y="323"/>
    <use href="#dimStar" x="659" y="362"/>
    <use href="#dimStar" x="660" y="641"/>
    <use href="#dimStar" x="665" y="594"/>
    <use href="#dimStar" x="674" y="441"/>
    <use href="#dimStar" x="678" y="417"/>
    <use href="#dimStar" x="678" y="841"/>
    <use href="#dimStar" x="683" y="374"/>
    <use href="#dimStar" x="688" y="699"/>
    <use href="#dimStar" x="690" y="40"/>
    <use href="#dimStar" x="694" y="695"/>
    <use href="#dimStar" x="70" y="215"/>
    <use href="#dimStar" x="70" y="821"/>
    <use href="#dimStar" x="705" y="330"/>
    <use href="#dimStar" x="715" y="586"/>
    <use href="#dimStar" x="717" y="362"/>
    <use href="#dimStar" x="718" y="276"/>
    <use href="#dimStar" x="724" y="234"/>
    <use href="#dimStar" x="728" y="822"/>
    <use href="#dimStar" x="734" y="797"/>
    <use href="#dimStar" x="734" y="878"/>
    <use href="#dimStar" x="740" y="160"/>
    <use href="#dimStar" x="744" y="465"/>
    <use href="#dimStar" x="746" y="141"/>
    <use href="#dimStar" x="75" y="510"/>
    <use href="#dimStar" x="75" y="515"/>
    <use href="#dimStar" x="751" y="538"/>
    <use href="#dimStar" x="760" y="197"/>
    <use href="#dimStar" x="761" y="842"/>
    <use href="#dimStar" x="770" y="75"/>
    <use href="#dimStar" x="775" y="150"/>
    <use href="#dimStar" x="776" y="410"/>
    <use href="#dimStar" x="776" y="478"/>
    <use href="#dimStar" x="782" y="260"/>
    <use href="#dimStar" x="782" y="921"/>
    <use href="#dimStar" x="790" y="544"/>
    <use href="#dimStar" x="798" y="529"/>
    <use href="#dimStar" x="80" y="611"/>
    <use href="#dimStar" x="805" y="677"/>
    <use href="#dimStar" x="810" y="851"/>
    <use href="#dimStar" x="818" y="590"/>
    <use href="#dimStar" x="827" y="758"/>
    <use href="#dimStar" x="828" y="693"/>
    <use href="#dimStar" x="830" y="524"/>
    <use href="#dimStar" x="835" y="180"/>
    <use href="#dimStar" x="838" y="509"/>
    <use href="#dimStar" x="846" y="969"/>
    <use href="#dimStar" x="85" y="270"/>
    <use href="#dimStar" x="85" y="325"/>
    <use href="#dimStar" x="852" y="659"/>
    <use href="#dimStar" x="852" y="672"/>
    <use href="#dimStar" x="857" y="762"/>
    <use href="#dimStar" x="861" y="342"/>
    <use href="#dimStar" x="868" y="280"/>
    <use href="#dimStar" x="870" y="15"/>
    <use href="#dimStar" x="873" y="294"/>
    <use href="#dimStar" x="874" y="852"/>
    <use href="#dimStar" x="883" y="410"/>
    <use href="#dimStar" x="886" y="125"/>
    <use href="#dimStar" x="891" y="727"/>
    <use href="#dimStar" x="898" y="581"/>
    <use href="#dimStar" x="90" y="440"/>
    <use href="#dimStar" x="90" y="650"/>
    <use href="#dimStar" x="902" y="223"/>
    <use href="#dimStar" x="903" y="635"/>
    <use href="#dimStar" x="910" y="364"/>
    <use href="#dimStar" x="912" y="386"/>
    <use href="#dimStar" x="920" y="453"/>
    <use href="#dimStar" x="922" y="433"/>
    <use href="#dimStar" x="923" y="616"/>
    <use href="#dimStar" x="937" y="974"/>
    <use href="#dimStar" x="947" y="127"/>
    <use href="#dimStar" x="95" y="460"/>
    <use href="#dimStar" x="95" y="490"/>
    <use href="#dimStar" x="95" y="765"/>
    <use href="#dimStar" x="952" y="195"/>
    <use href="#dimStar" x="953" y="238"/>
    <use href="#dimStar" x="966" y="123"/>
    <use href="#dimStar" x="966" y="290"/>
    <use href="#dimStar" x="971" y="514"/>
    <use href="#dimStar" x="982" y="488"/>
    <use href="#dimStar" x="984" y="187"/>
    <use href="#dimStar" x="995" y="65"/>
    <use href="#dimStar" x="997" y="346"/>
    <use href="#star" x="400" y="400"/>

    <use href="#smallStar" x="110" y="548"/>
    <use href="#smallStar" x="117" y="822"/>
    <use href="#smallStar" x="130" y="384"/>
    <use href="#smallStar" x="135" y="354"/>
    <use href="#smallStar" x="146" y="614"/>
    <use href="#smallStar" x="151" y="740"/>
    <use href="#smallStar" x="161" y="378"/>
    <use href="#smallStar" x="176" y="294"/>
    <use href="#smallStar" x="176" y="682"/>
    <use href="#smallStar" x="183" y="728"/>
    <use href="#smallStar" x="187" y="479"/>
    <use href="#smallStar" x="194" y="565"/>
    <use href="#smallStar" x="203" y="125"/>
    <use href="#smallStar" x="214" y="276"/>
    <use href="#smallStar" x="223" y="437"/>
    <use href="#smallStar" x="231" y="196"/>
    <use href="#smallStar" x="247" y="792"/>
    <use href="#smallStar" x="257" y="951"/>
    <use href="#smallStar" x="264" y="923"/>
    <use href="#smallStar" x="278" y="781"/>
    <use href="#smallStar" x="283" y="142"/>
    <use href="#smallStar" x="298" y="574"/>
    <use href="#smallStar" x="301" y="150"/>
    <use href="#smallStar" x="361" y="287"/>
    <use href="#smallStar" x="381" y="769"/>
    <use href="#smallStar" x="424" y="236"/>
    <use href="#smallStar" x="448" y="291"/>
    <use href="#smallStar" x="471" y="912"/>
    <use href="#smallStar" x="488" y="410"/>
    <use href="#smallStar" x="496" y="173"/>
    <use href="#smallStar" x="502" y="395"/>
    <use href="#smallStar" x="522" y="857"/>
    <use href="#smallStar" x="53" y="81"/>
    <use href="#smallStar" x="535" y="683"/>
    <use href="#smallStar" x="547" y="331"/>
    <use href="#smallStar" x="557" y="838"/>
    <use href="#smallStar" x="575" y="626"/>
    <use href="#smallStar" x="586" y="623"/>
    <use href="#smallStar" x="592" y="547"/>
    <use href="#smallStar" x="608" y="216"/>
    <use href="#smallStar" x="614" y="896"/>
    <use href="#smallStar" x="628" y="166"/>
    <use href="#smallStar" x="634" y="494"/>
    <use href="#smallStar" x="644" y="487"/>
    <use href="#smallStar" x="655" y="714"/>
    <use href="#smallStar" x="675" y="885"/>
    <use href="#smallStar" x="689" y="240"/>
    <use href="#smallStar" x="709" y="632"/>
    <use href="#smallStar" x="712" y="756"/>
    <use href="#smallStar" x="722" y="677"/>
    <use href="#smallStar" x="737" y="522"/>
    <use href="#smallStar" x="743" y="853"/>
    <use href="#smallStar" x="752" y="309"/>
    <use href="#smallStar" x="773" y="136"/>
    <use href="#smallStar" x="787" y="165"/>
    <use href="#smallStar" x="798" y="570"/>
    <use href="#smallStar" x="818" y="311"/>
    <use href="#smallStar" x="826" y="182"/>
    <use href="#smallStar" x="836" y="443"/>
    <use href="#smallStar" x="852" y="218"/>
    <use href="#smallStar" x="869" y="535"/>
    <use href="#smallStar" x="874" y="760"/>
    <use href="#smallStar" x="889" y="679"/>
    <use href="#smallStar" x="894" y="594"/>
    <use href="#smallStar" x="905" y="722"/>
    <use href="#smallStar" x="910" y="699"/>
    <use href="#smallStar" x="924" y="457"/>
    <use href="#smallStar" x="93" y="296"/>
    <use href="#smallStar" x="945" y="823"/>
    <use href="#smallStar" x="965" y="355"/>
    <use href="#smallStar" x="986" y="483"/>
</svg>